<mxfile host="app.diagrams.net" modified="2023-11-05T15:31:58.009Z" agent="Mozilla/5.0 (Windows NT 10.0; Win64; x64) AppleWebKit/537.36 (KHTML, like Gecko) Chrome/118.0.0.0 Safari/537.36" etag="ho4BHrHTjqcNWnRBuYBT" version="22.0.8" type="github">
  <diagram name="Page-1" id="13e1069c-82ec-6db2-03f1-153e76fe0fe0">
    <mxGraphModel dx="1434" dy="841" grid="1" gridSize="10" guides="1" tooltips="1" connect="1" arrows="1" fold="1" page="1" pageScale="1" pageWidth="1100" pageHeight="850" background="none" math="0" shadow="0">
      <root>
        <mxCell id="0" />
        <mxCell id="1" parent="0" />
        <mxCell id="R8ERbS6EY8pf5TJripWs-4" value="&lt;b&gt;User B&lt;/b&gt;" style="shape=umlLifeline;perimeter=lifelinePerimeter;whiteSpace=wrap;html=1;container=1;dropTarget=0;collapsible=0;recursiveResize=0;outlineConnect=0;portConstraint=eastwest;newEdgeStyle={&quot;curved&quot;:0,&quot;rounded&quot;:0};participant=umlActor;size=95;" vertex="1" parent="1">
          <mxGeometry x="350" y="30" width="60" height="810" as="geometry" />
        </mxCell>
        <mxCell id="R8ERbS6EY8pf5TJripWs-6" value="&lt;b&gt;User A&lt;/b&gt;" style="shape=umlLifeline;perimeter=lifelinePerimeter;whiteSpace=wrap;html=1;container=1;dropTarget=0;collapsible=0;recursiveResize=0;outlineConnect=0;portConstraint=eastwest;newEdgeStyle={&quot;curved&quot;:0,&quot;rounded&quot;:0};participant=umlActor;size=95;" vertex="1" parent="1">
          <mxGeometry x="550" y="30" width="60" height="810" as="geometry" />
        </mxCell>
        <mxCell id="R8ERbS6EY8pf5TJripWs-15" value="Smart Contract" style="shape=umlLifeline;perimeter=lifelinePerimeter;whiteSpace=wrap;html=1;container=1;dropTarget=0;collapsible=0;recursiveResize=0;outlineConnect=0;portConstraint=eastwest;newEdgeStyle={&quot;curved&quot;:0,&quot;rounded&quot;:0};participant=umlEntity;size=70;" vertex="1" parent="1">
          <mxGeometry x="740" y="40" width="80" height="770" as="geometry" />
        </mxCell>
        <mxCell id="R8ERbS6EY8pf5TJripWs-25" value="&amp;nbsp;Send ETH&lt;sub&gt;B &lt;/sub&gt;and K&lt;sub&gt;B&lt;/sub&gt;&lt;sup&gt;A&lt;/sup&gt;" style="html=1;verticalAlign=bottom;endArrow=block;curved=0;rounded=0;" edge="1" parent="1">
          <mxGeometry width="80" relative="1" as="geometry">
            <mxPoint x="380" y="200" as="sourcePoint" />
            <mxPoint x="580" y="200" as="targetPoint" />
            <mxPoint as="offset" />
          </mxGeometry>
        </mxCell>
        <mxCell id="R8ERbS6EY8pf5TJripWs-30" value="" style="line;strokeWidth=1;fillColor=none;align=left;verticalAlign=middle;spacingTop=-1;spacingLeft=3;spacingRight=3;rotatable=0;labelPosition=right;points=[];portConstraint=eastwest;strokeColor=inherit;" vertex="1" parent="1">
          <mxGeometry x="910" y="260" width="690" height="8" as="geometry" />
        </mxCell>
      </root>
    </mxGraphModel>
  </diagram>
</mxfile>
